<?xml version="1.0" encoding="UTF-8"?>
<svg width="512px" height="511.984px" viewBox="0 0 512 511.984" version="1.1" xmlns="http://www.w3.org/2000/svg" xmlns:xlink="http://www.w3.org/1999/xlink">
    <title>iOS</title>
    <g id="Page-1" stroke="none" stroke-width="1" fill="none" fill-rule="evenodd">
        <g id="iOS" fill-rule="nonzero">
            <g id="Group">
                <polygon id="Path" fill="#CE0000" points="256 0 512 0 512 511.984 256 511.984"></polygon>
                <polygon id="Path" fill="#FFFFFF" points="0 0 256 0 256 511.984 0 511.984"></polygon>
            </g>
            <g id="diving" transform="translate(82, 109)" fill="#FFFFFF">
                <path d="M0,173.904762 C0,156.514286 14.2363636,142.285714 31.6363636,142.285714 C49.0363636,142.285714 63.2727273,156.514286 63.2727273,173.904762 C63.2727273,191.295238 49.0363636,205.52381 31.6363636,205.52381 C14.2363636,205.52381 0,191.295238 0,173.904762 Z M124.805455,128.215238 L196.461818,109.085714 L184.123636,63.2380952 L112.467273,82.367619 C99.8127273,85.687619 92.22,98.8095238 95.7,111.457143 C99.18,124.104762 112.150909,131.693333 124.805455,128.215238 L124.805455,128.215238 Z M308.454545,61.6571429 L348,15.8095238 L332.181818,0 L284.727273,47.4285714 L253.090909,110.666667 L103.134545,156.04 C90.1636364,159.201905 81.1472727,170.110476 79.4072727,182.6 L67.0690909,252.952381 L22.1454545,313.028571 L47.4545455,332 L94.9090909,268.761905 L112.941818,219.12 L205.636364,189.714286 L284.727273,134.380952 L308.454545,61.6571429 Z" id="diver"></path>
            </g>
            <g id="diving-red" transform="translate(77, 89)" fill="#CE0000">
                <path d="M0,173.904762 C0,156.514286 14.2363636,142.285714 31.6363636,142.285714 C49.0363636,142.285714 63.2727273,156.514286 63.2727273,173.904762 C63.2727273,191.295238 49.0363636,205.52381 31.6363636,205.52381 C14.2363636,205.52381 0,191.295238 0,173.904762 Z M124.805455,128.215238 L196.461818,109.085714 L184.123636,63.2380952 L112.467273,82.367619 C99.8127273,85.687619 92.22,98.8095238 95.7,111.457143 C99.18,124.104762 112.150909,131.693333 124.805455,128.215238 L124.805455,128.215238 Z M308.454545,61.6571429 L348,15.8095238 L332.181818,0 L284.727273,47.4285714 L253.090909,110.666667 L103.134545,156.04 C90.1636364,159.201905 81.1472727,170.110476 79.4072727,182.6 L67.0690909,252.952381 L22.1454545,313.028571 L47.4545455,332 L94.9090909,268.761905 L112.941818,219.12 L205.636364,189.714286 L284.727273,134.380952 L308.454545,61.6571429 Z" id="diver"></path>
            </g>
        </g>
    </g>
</svg>