<?xml version="1.0" encoding="UTF-8"?>
<svg width="397px" height="307px" viewBox="0 0 397 307" version="1.1" xmlns="http://www.w3.org/2000/svg" xmlns:xlink="http://www.w3.org/1999/xlink">
    <title>iOS</title>
    <defs>
        <linearGradient x1="50%" y1="0%" x2="50%" y2="100%" id="linearGradient-1">
            <stop stop-color="#C09F52" offset="0%"></stop>
            <stop stop-color="#87703B" offset="100%"></stop>
        </linearGradient>
    </defs>
    <g id="Page-1" stroke="none" stroke-width="1" fill="none" fill-rule="evenodd">
        <g id="iOS" transform="translate(-58, -103)" fill-rule="nonzero">
            <g id="Path" fill="#FFFFFF" fill-opacity="0">
                <g id="path-2-link">
                    <path d="M146.141456,-5.90428975e-15 L365.858544,-5.90428975e-15 C416.675112,-5.90428975e-15 435.102427,5.29105984 453.680205,15.2265641 C472.257983,25.1620684 486.837932,39.7420171 496.773436,58.3197949 C506.70894,76.8975727 512,95.3248882 512,146.141456 L512,365.858544 C512,416.675112 506.70894,435.102427 496.773436,453.680205 C486.837932,472.257983 472.257983,486.837932 453.680205,496.773436 C435.102427,506.70894 416.675112,512 365.858544,512 L146.141456,512 C95.3248882,512 76.8975727,506.70894 58.3197949,496.773436 C39.7420171,486.837932 25.1620684,472.257983 15.2265641,453.680205 C5.29105984,435.102427 -3.93619317e-15,416.675112 -3.93619317e-15,365.858544 L-3.93619317e-15,146.141456 C-3.93619317e-15,95.3248882 5.29105984,76.8975727 15.2265641,58.3197949 C25.1620684,39.7420171 39.7420171,25.1620684 58.3197949,15.2265641 C76.8975727,5.29105984 95.3248882,-5.90428975e-15 146.141456,-5.90428975e-15 Z" id="path-2"></path>
                </g>
            </g>
            <g id="goldenticket" transform="translate(58, 103)" fill="url(#linearGradient-1)">
                <path d="M397,153.5 L303.815278,284.523214 C299.036574,291.101786 293.338889,296.49256 286.722222,300.695536 C280.105556,304.898512 272.753704,307 264.666667,307 L33.083333,307 C23.985417,307 16.1970486,303.779241 9.7182292,297.337723 C3.2394097,290.896205 0,283.152679 0,274.107143 L0,32.892857 C0,23.847321 3.2394097,16.103795 9.7182292,9.662277 C16.1970486,3.220759 23.985417,0 33.083333,0 L264.666667,0 C272.753704,0 280.105556,2.101488 286.722222,6.304464 C293.338889,10.50744 299.036574,15.898214 303.815278,22.476786 L397,153.5 Z" id="Label"></path>
            </g>
        </g>
    </g>
</svg>